<?xml version="1.0" encoding="utf-8"?>
<!-- Generator: Adobe Illustrator 22.1.0, SVG Export Plug-In . SVG Version: 6.00 Build 0)  -->
<svg version="1.1" id="Layer_1" xmlns="http://www.w3.org/2000/svg" xmlns:xlink="http://www.w3.org/1999/xlink" x="0px" y="0px"
	 viewBox="0 0 300 228.9" style="enable-background:new 0 0 300 228.9;" xml:space="preserve">
<style type="text/css">
	.st0{fill:none;}
	.st1{fill:#F7F7F7;}
	.st2{fill:#F36F28;}
	.st3{fill:#3AB1C8;}
</style>
<rect class="st0" width="300" height="300"/>
<polygon class="st1" points="44.4,128.1 0,210.3 0,49.7 44.4,49.7 "/>
<path class="st2" d="M90.4,61.6C90.3,61.6,90.3,61.6,90.4,61.6L90.4,61.6L90.4,61.6z"/>
<polygon class="st1" points="300,49.7 234.5,159.4 234.5,228.9 190,228.9 190,159.4 255.6,49.7 "/>
<g>
	<path class="st1" d="M214.4,100.3l-73.2,128.6H96.8v-97l-52,97H0L90.3,61.6c0,0,0,0,0,0.1c7.2,21,27.2,36.1,50.6,36.1l0.1,53.3
		l28.9-50.7l-3.9-8.8c14.2-7.5,24.6-21.3,27.6-37.6L214.4,100.3z"/>
</g>
<g>
	<circle class="st3" cx="141" cy="44.2" r="44.2"/>
</g>
<g>
	<path class="st2" d="M90.4,61.6C90.3,61.6,90.3,61.6,90.4,61.6C90.3,61.6,90.3,61.6,90.4,61.6L90.4,61.6L90.4,61.6z"/>
</g>
</svg>
